<svg xmlns="http://www.w3.org/2000/svg" height="40" viewBox="0 -960 960 960" width="40"><path d="M80-80v-106.665h800V-80h-93.333v-53.333H526.666V-80h-93.332v-53.333H173.333V-80H80Zm153.333-240q-14.166 0-23.75-9.583-9.583-9.584-9.583-23.75v-493.334q0-14.166 9.583-23.75 9.584-9.583 23.75-9.583h493.334q14.166 0 23.75 9.583 9.583 9.584 9.583 23.75v500.001q0 11.333-7.667 18.999Q744.667-320 733.334-320H233.333Zm20-53.333h453.334v-453.334H253.333v453.334ZM360-653.334h240v-53.332H360v53.332ZM253.333-373.333v-453.334 453.334Z"/></svg>