<svg xmlns="http://www.w3.org/2000/svg" height="40" viewBox="0 -960 960 960" width="40"><path d="M480-80q-84.333 0-157.333-30.833-73-30.834-127-84.834t-84.834-127Q80-395.667 80-480q0-83.667 30.833-156.667 30.834-73 84.834-127t127-85.166Q395.667-880 480-880q71.667 0 134.334 22.333Q677-835.333 728.001-796l-48 48.333q-42-31.333-92.334-48.5Q537.334-813.334 480-813.334q-141 0-237.167 96.167T146.666-480q0 141 96.167 237.167T480-146.666q141 0 237.167-96.167T813.334-480q0-26-3.667-51-3.667-25.001-11-48.668L851-632q14.333 35.333 21.667 73.333Q880-520.667 880-480q0 84.333-31.167 157.333-31.166 73-85.166 127t-127 84.834Q563.667-80 480-80Zm-58-217.333L255.333-464.667 304-513.333l118 118L831.334-805l49.333 48.667-458.667 459Z"/></svg>